<svg width="24" height="24" viewBox="0 0 24 24" fill="none" xmlns="http://www.w3.org/2000/svg">
<g clip-path="url(#clip0_14_3234)">
<path d="M14 14H10C7.879 14.0024 5.84555 14.846 4.34578 16.3458C2.846 17.8456 2.00238 19.879 2 22C1.99986 22.212 2.06711 22.4186 2.19203 22.5899C2.31696 22.7612 2.49309 22.8883 2.695 22.953C5.73184 23.7387 8.86449 24.0912 12 24C15.1355 24.0912 18.2682 23.7387 21.305 22.953C21.5069 22.8883 21.683 22.7612 21.808 22.5899C21.9329 22.4186 22.0001 22.212 22 22C21.9976 19.879 21.154 17.8456 19.6542 16.3458C18.1544 14.846 16.121 14.0024 14 14Z" fill="#1D3A70" fill-opacity="0.7"/>
<path d="M12 12C15.1 12 17.5 8.53 17.5 5.545C17.5 4.08631 16.9205 2.68736 15.8891 1.65591C14.8576 0.624463 13.4587 0.0450001 12 0.0450001C10.5413 0.0450001 9.14236 0.624463 8.11091 1.65591C7.07946 2.68736 6.5 4.08631 6.5 5.545C6.5 8.53 8.9 12 12 12Z" fill="#1D3A70" fill-opacity="0.7"/>
</g>
<defs>
<clipPath id="clip0_14_3234">
<rect width="24" height="24" fill="white"/>
</clipPath>
</defs>
</svg>
