<?xml version="1.0" encoding="UTF-8"?>
<svg width="160" height="40" viewBox="0 0 160 40" fill="none" xmlns="http://www.w3.org/2000/svg">
  <!-- Leaf icon -->
  <path d="M20 8C26 8 32 14 32 20C32 26 26 32 20 32C14 32 8 26 8 20C8 14 14 8 20 8ZM20 12C16.13 12 13 15.13 13 19C13 22.87 16.13 26 20 26C23.87 26 27 22.87 27 19C27 15.13 23.87 12 20 12ZM20 14C22.76 14 25 16.24 25 19C25 21.76 22.76 24 20 24C17.24 24 15 21.76 15 19C15 16.24 17.24 14 20 14Z" fill="#16A34A"/>
  
  <!-- Text "Eco" -->
  <text x="45" y="26" font-family="Arial" font-size="24" font-weight="bold" fill="#16A34A">Eco</text>
  
  <!-- Text "Treasure" -->
  <text x="90" y="26" font-family="Arial" font-size="24" font-weight="bold" fill="#374151">Treasure</text>
</svg>
