<svg width="1802" height="901" viewBox="0 0 1802 901" fill="none" xmlns="http://www.w3.org/2000/svg">
<path d="M199.362 951.594C197.23 950.675 195.098 949.756 192.966 948.837C195.346 950.247 197.713 951.722 200.097 953.11C202.638 954.401 205.152 955.734 207.711 956.997C204.927 955.201 202.138 953.418 199.362 951.594ZM862.169 507.481C863.12 502.886 864.007 498.098 864.926 493.452C865.307 488.159 865.592 482.613 865.909 477.149C865.16 482.599 864.453 488.177 863.658 493.493C863.157 498.134 862.693 502.89 862.169 507.481ZM858.851 523.057C859.191 521.532 859.559 520.089 859.89 518.55C860.106 516.781 860.276 514.874 860.478 513.068C859.94 516.39 859.403 519.754 858.851 523.057ZM168.061 934.992C165.516 934 163.007 932.947 160.466 931.932C163.457 933.614 166.476 935.231 169.481 936.885C171.448 937.804 173.428 938.723 175.399 939.642C172.941 938.112 170.51 936.527 168.061 934.992ZM183.036 940.653C179.82 939.449 176.603 938.245 173.414 937.019C177.343 939.449 181.295 941.825 185.242 944.205C188.036 945.469 190.843 946.673 193.655 947.881C190.099 945.51 186.579 943.052 183.036 940.649V940.653ZM858.01 541.152C859.504 536.098 860.891 530.763 862.339 525.58C863.033 517.53 863.814 509.714 864.448 501.502C863.295 507.251 862.178 513.109 860.969 518.701C860.046 526.357 859.003 533.672 858.01 541.148V541.152ZM852.634 558.237C853.769 554.597 854.932 551.068 856.053 547.379C856.885 541.295 857.744 535.289 858.562 529.155C857.785 532.62 856.977 535.988 856.195 539.42C855.065 545.849 853.82 551.955 852.634 558.232V558.237ZM848.816 570.358C849.11 569.439 849.395 568.52 849.684 567.601L850.052 565.763C849.652 567.316 849.216 568.773 848.816 570.354V570.358ZM120.995 913.75L119.699 913.263C120.65 913.694 121.588 914.136 122.539 914.563C122.029 914.287 121.505 914.025 120.995 913.75ZM135.965 919.089C133.59 918.262 131.205 917.449 128.848 916.603C131.605 918.055 134.362 919.535 137.146 920.968C139.857 922.135 142.541 923.344 145.266 924.493C142.164 922.687 139.049 920.922 135.965 919.089ZM151.129 924.272C147.958 923.234 144.815 922.163 141.668 921.088C145.413 923.284 149.167 925.476 152.935 927.631C156.209 928.982 159.493 930.325 162.786 931.661C158.908 929.198 154.998 926.781 151.138 924.272H151.129ZM166.21 929.115C162.616 927.979 159.034 926.828 155.462 925.664C159.832 928.477 164.234 931.243 168.631 933.995C172.077 935.346 175.546 936.628 179.016 937.919C174.752 934.992 170.474 932.093 166.219 929.115H166.21ZM854.031 570.013C855.943 565.299 857.804 560.424 859.674 555.581C860.464 547.769 861.121 539.609 861.801 531.508C860.262 536.916 858.709 542.297 857.119 547.567C856.126 555.121 855.125 562.707 854.04 570.013H854.031ZM847.097 586.418C848.862 582.241 850.654 578.147 852.4 573.878C853.392 567.385 854.265 560.552 855.157 553.779C853.705 558.508 852.225 563.144 850.746 567.79C849.556 574.048 848.375 580.357 847.107 586.418H847.097ZM840.072 603.033C841.753 599.242 843.362 595.221 845.02 591.33C845.999 586.758 846.891 581.924 847.777 577.149C846.399 581.285 845.048 585.42 843.665 589.505C842.484 593.999 841.34 598.64 840.081 603.033H840.072ZM834.976 613.997C835.743 612.333 836.529 610.743 837.273 609.066C837.912 606.851 838.523 604.549 839.111 602.266C837.774 606.185 836.396 610.128 834.985 613.997H834.976ZM89.8227 900.291C89.2345 900.107 88.6418 899.933 88.0536 899.744C89.2391 900.227 90.4384 900.7 91.6239 901.182L89.8227 900.291ZM105.023 905.019C102.197 904.165 99.4078 903.269 96.5956 902.4C99.8811 903.985 103.194 905.538 106.502 907.101C108.864 908.02 111.258 908.893 113.634 909.789C110.739 908.222 107.895 906.609 105.023 905.019ZM119.786 909.26C116.478 908.341 113.17 907.395 109.889 906.43C113.782 908.574 117.69 910.695 121.611 912.794C124.809 913.97 128.025 915.125 131.26 916.258C127.405 913.956 123.605 911.604 119.786 909.26ZM134.605 913.313C131.018 912.376 127.442 911.415 123.876 910.432C128.103 913.01 132.322 915.597 136.577 918.124C140.285 919.415 143.974 920.739 147.701 921.993C143.317 919.135 138.961 916.226 134.605 913.313ZM149.424 917.154C145.596 916.203 141.815 915.183 138.01 914.2C142.568 917.228 147.113 920.307 151.703 923.28C155.526 924.543 159.372 925.766 163.218 926.956C158.605 923.736 154.007 920.469 149.424 917.154ZM849.445 598.263C851.743 594.128 853.999 589.933 856.255 585.678C857.284 576.975 858.383 568.451 859.329 559.528C857.399 564.463 855.442 569.315 853.475 574.126C852.198 582.374 850.792 590.245 849.445 598.277V598.263ZM841.174 612.898C843.403 608.993 845.632 605.087 847.837 601.099C849.151 593.443 850.525 585.935 851.775 578.124C849.896 582.663 847.993 587.125 846.086 591.578C844.506 598.884 842.806 605.804 841.174 612.912V612.898ZM832.784 627.441C834.957 623.793 837.099 620.034 839.249 616.299C840.729 609.981 842.222 603.704 843.674 597.303C841.905 601.365 840.131 605.413 838.335 609.392C836.533 615.559 834.627 621.417 832.784 627.455V627.441ZM824.972 640.101C826.81 637.118 828.648 634.187 830.486 631.154C831.989 626.297 833.487 621.408 834.985 616.528C833.652 619.419 832.306 622.258 830.964 625.107C829.021 630.254 826.971 635.088 824.982 640.114L824.972 640.101ZM818.415 650.733C819.495 649.038 820.543 647.255 821.632 645.546C822.216 644.103 822.79 642.628 823.373 641.194C821.747 644.484 820.06 647.526 818.425 650.747L818.415 650.733ZM58.563 888.399L55.9761 887.728C57.7543 888.358 59.5142 889.01 61.3063 889.631C60.3827 889.226 59.482 888.808 58.563 888.399ZM73.5794 892.172C70.8224 891.515 68.0655 890.857 65.3682 890.173C68.5387 891.551 71.7368 892.93 74.9349 894.271C77.7241 895.19 80.4903 896.155 83.2978 897.07C80.0446 895.449 76.8051 893.817 73.5794 892.172ZM88.5223 895.714C85.0117 894.915 81.5425 894.074 78.0595 893.242C82.1123 895.296 86.2294 897.29 90.3235 899.303C93.6411 900.351 96.977 901.375 100.313 902.405C96.3674 900.193 92.4372 897.963 88.5223 895.714ZM103.189 898.931C99.4736 898.137 95.767 897.33 92.0696 896.509C96.5451 899.064 101.067 901.564 105.583 904.063C109.117 905.116 112.692 906.122 116.267 907.133C111.889 904.41 107.53 901.669 103.189 898.912V898.931ZM117.76 901.876C113.946 901.141 110.132 900.41 106.365 899.625C111.002 902.547 115.668 905.44 120.361 908.305C124.156 909.366 127.956 910.432 131.779 911.457C127.083 908.283 122.41 905.083 117.76 901.858V901.876ZM132.303 904.633C128.361 903.919 124.438 903.183 120.535 902.423C125.397 905.759 130.281 909.067 135.189 912.348C139.099 913.377 143 914.416 146.943 915.408C142.035 911.838 137.174 908.222 132.303 904.61V904.633ZM844.901 624.799C847.552 621.257 850.213 617.755 852.846 614.13C853.958 605.946 854.895 597.289 855.888 588.77C853.59 593.085 851.233 597.239 848.903 601.452C847.594 609.291 846.316 617.227 844.901 624.781V624.799ZM835.55 637.077C838.194 633.655 840.83 630.195 843.458 626.697C844.837 619.478 846.036 611.814 847.299 604.292C844.974 608.464 842.642 612.6 840.301 616.698C838.739 623.522 837.204 630.465 835.55 637.059V637.077ZM826.144 649.065C828.736 645.824 831.32 642.551 833.896 639.246C835.463 633.07 836.901 626.523 838.376 620.08C836.106 623.981 833.809 627.786 831.516 631.604C829.747 637.463 828.014 643.404 826.144 649.047V649.065ZM816.904 660.318C819.339 657.373 821.779 654.437 824.201 651.436C825.928 646.221 827.569 640.744 829.227 635.313C827.034 638.918 824.833 642.49 822.624 646.028C820.731 650.821 818.857 655.678 816.904 660.3V660.318ZM807.778 671.346C809.988 668.769 812.166 666.071 814.363 663.438C816.021 659.551 817.648 655.535 819.266 651.492C817.303 654.575 815.323 657.575 813.343 660.594C811.495 664.16 809.667 667.827 807.797 671.305L807.778 671.346ZM800.854 679.158C802.03 677.816 803.211 676.525 804.382 675.174C805.591 672.973 806.809 670.795 807.999 668.539C805.618 672.054 803.257 675.657 800.854 679.126V679.158ZM28.227 878.603C26.9588 878.364 25.7228 878.106 24.4592 877.863C26.9956 878.607 29.5458 879.346 32.1098 880.078C30.8186 879.586 29.509 879.099 28.227 878.603ZM42.7609 881.231C39.8983 880.721 37.0264 880.216 34.1913 879.687C37.4078 880.919 40.6243 882.168 43.8867 883.363C46.8183 884.169 49.7652 884.959 52.7274 885.734C49.3961 884.264 46.0555 882.766 42.7609 881.231ZM57.3132 883.698C53.9221 883.156 50.531 882.609 47.2043 882.031C51.1284 883.823 55.0525 885.624 59.018 887.384C62.5377 888.303 66.0529 889.222 69.6094 890.086C65.4923 887.981 61.3706 885.867 57.3132 883.712V883.698ZM71.8379 885.996C68.1344 885.445 64.486 884.861 60.81 884.277C65.1967 886.59 69.6094 888.888 74.0481 891.17C77.8114 892.089 81.5701 893.008 85.3655 893.881C80.8717 891.262 76.3042 888.666 71.8379 886.005V885.996ZM86.3397 888.123C82.4661 887.586 78.6247 887.021 74.7925 886.456C79.4977 889.245 84.2535 891.969 89.0139 894.727C92.8324 895.59 96.6921 896.417 100.552 897.24C95.8007 894.198 91.0403 891.184 86.3397 888.123ZM100.662 889.961C96.7335 889.502 92.8048 889.006 88.9266 888.482C93.8203 891.671 98.7783 894.805 103.722 897.938C107.637 898.765 111.575 899.556 115.532 900.337C110.56 896.854 105.588 893.435 100.662 889.961ZM114.948 891.629C110.946 891.17 106.953 890.738 103.001 890.251C108.056 893.83 113.193 897.35 118.312 900.875C122.318 901.656 126.325 902.446 130.369 903.172C125.21 899.34 120.07 895.485 114.948 891.606V891.629ZM839.575 650.936C842.571 648.055 845.59 645.279 848.577 642.334C849.914 633.7 851.334 625.286 852.579 616.391C849.909 620.067 847.198 623.531 844.51 627.115C842.939 635.253 841.22 642.982 839.571 650.913L839.575 650.936ZM829.135 660.865C832.15 658.049 835.155 655.168 838.155 652.286C839.777 644.572 841.455 637.017 843.003 629.091C840.32 632.652 837.636 636.204 834.93 639.659C833.069 646.91 831.061 653.78 829.131 660.842L829.135 660.865ZM818.687 670.427C821.655 667.744 824.623 665.093 827.578 662.345C829.416 655.604 831.327 648.941 833.138 642.044C830.505 645.403 827.849 648.647 825.198 651.937C823.07 658.214 820.855 664.243 818.682 670.404L818.687 670.427ZM808.256 679.728C811.172 677.161 814.082 674.557 816.986 671.916C819.05 666.104 821.122 660.328 823.153 654.396C820.555 657.597 817.951 660.769 815.341 663.912C812.993 669.283 810.599 674.457 808.256 679.728ZM797.871 688.766C800.665 686.38 803.454 683.967 806.239 681.529C808.398 676.773 810.553 672.008 812.672 667.174C810.232 670.074 807.773 672.895 805.32 675.735C802.834 680.132 800.334 684.424 797.848 688.766H797.871ZM788.029 696.991C790.501 694.932 792.978 692.888 795.441 690.797C797.554 687.149 799.657 683.473 801.75 679.769C799.648 682.174 797.542 684.554 795.431 686.91C792.955 690.324 790.469 693.627 788.006 696.973L788.029 696.991ZM779.62 704.017C781.261 702.689 782.883 701.26 784.518 699.923C785.607 698.457 786.692 696.954 787.781 695.484C785.056 698.415 782.313 701.154 779.597 704.017H779.62ZM12.572 872.399C9.50252 872.092 6.49281 871.761 3.46013 871.439C6.89104 872.523 10.348 873.596 13.831 874.656C16.6845 875.235 19.5839 875.795 22.4603 876.356C19.1382 875.06 15.862 873.727 12.572 872.399ZM26.8164 873.718C23.315 873.406 19.8182 873.084 16.3582 872.753C20.411 874.371 24.4729 875.97 28.5854 877.578C31.9673 878.221 35.409 878.837 38.8506 879.448C34.8208 877.555 30.8324 875.639 26.8348 873.718H26.8164ZM41.0608 874.895C37.3527 874.61 33.6399 874.329 29.9961 874.012C34.3613 876.094 38.7266 878.18 43.1607 880.225C46.8734 880.88 50.6091 881.521 54.3678 882.145C49.9015 879.756 45.4903 877.325 41.07 874.895H41.0608ZM55.2639 875.938C51.4041 875.674 47.5749 875.398 43.7764 875.111C48.4173 877.652 53.0537 880.197 57.7543 882.692C61.6509 883.331 65.5658 883.974 69.4899 884.576C64.7111 881.723 59.9875 878.832 55.2731 875.938H55.2639ZM69.4348 876.857C65.4785 876.622 61.5728 876.36 57.6624 876.103C62.5193 879.081 67.367 882.076 72.2882 884.994C76.2445 885.587 80.2375 886.161 84.2352 886.722C79.2818 883.453 74.3514 880.162 69.444 876.847L69.4348 876.857ZM83.4954 877.583C79.5161 877.39 75.5507 877.187 71.6266 876.967C76.681 880.358 81.7125 883.754 86.8175 887.076C90.783 887.623 94.8036 888.114 98.8242 888.611C93.6932 884.959 88.5866 881.274 83.5046 877.555L83.4954 877.583ZM97.4871 878.162C93.494 878.019 89.5056 877.867 85.5677 877.702C90.7371 881.465 95.9248 885.229 101.154 888.937C105.188 889.433 109.239 889.911 113.308 890.37C108.017 886.312 102.747 882.239 97.4963 878.152L97.4871 878.162ZM834.388 675.684C837.724 673.479 841.06 671.351 844.391 669.104C845.797 661.072 847.005 652.493 848.287 644.121C845.259 647.085 842.208 649.879 839.171 652.787C837.604 660.456 836.088 668.309 834.397 675.675L834.388 675.684ZM822.992 683.178C826.333 681.023 829.669 678.799 833.005 676.594C834.677 669.366 836.184 661.674 837.751 654.138C834.695 657.065 831.64 660.015 828.561 662.869C826.737 669.678 824.94 676.631 823.001 683.188L822.992 683.178ZM811.61 690.379C814.905 688.302 818.204 686.28 821.499 684.162C823.41 677.77 825.175 671.006 827.013 664.353C823.994 667.142 820.957 669.798 817.928 672.532C815.847 678.519 813.77 684.612 811.62 690.37L811.61 690.379ZM800.192 697.496C803.463 695.488 806.73 693.434 810.002 691.38C812.134 685.775 814.165 679.893 816.219 674.053C813.196 676.773 810.172 679.503 807.135 682.158C804.847 687.323 802.563 692.534 800.201 697.487L800.192 697.496ZM788.842 704.389C792.022 702.487 795.202 700.589 798.377 698.641C800.674 693.88 802.889 688.918 805.118 683.973C802.181 686.528 799.231 688.996 796.286 691.5C793.828 695.815 791.369 700.189 788.851 704.366L788.842 704.389ZM777.699 710.973C780.72 709.203 783.739 707.42 786.756 705.625C789.15 701.687 791.507 697.611 793.86 693.526C791.016 695.925 788.167 698.319 785.313 700.667C782.795 704.122 780.273 707.615 777.709 710.951L777.699 710.973ZM766.989 717.19C769.672 715.656 772.355 714.075 775.039 712.513C777.309 709.581 779.566 706.599 781.812 703.566C779.271 705.639 776.721 707.647 774.17 709.682C771.781 712.219 769.396 714.778 766.989 717.19ZM758.525 721.919C760.11 721.032 761.695 720.159 763.28 719.263C764.916 717.632 766.566 716.046 768.197 714.355C764.976 716.896 761.755 719.488 758.525 721.932V721.919ZM24.5878 865.663C20.7326 865.718 16.882 865.764 13.1004 865.792C17.7597 868.105 22.4573 870.402 27.1932 872.684C31.0116 873.024 34.876 873.341 38.7587 873.649C34.0029 870.998 29.2839 868.333 24.5878 865.663ZM38.4784 865.433C34.5451 865.512 30.6348 865.585 26.7704 865.64C31.6319 868.397 36.5332 871.133 41.4743 873.847C45.3939 874.155 49.3272 874.449 53.3018 874.729C48.3025 871.655 43.3859 868.544 38.4784 865.433ZM52.3461 865.121C48.353 865.227 44.4151 865.314 40.4818 865.392C45.5179 868.578 50.5846 871.742 55.682 874.885C59.6704 875.156 63.6497 875.432 67.6841 875.671C62.5285 872.184 57.4373 868.655 52.3461 865.121ZM66.1815 864.726C62.1609 864.854 58.1955 864.96 54.2346 865.07C59.4238 868.661 64.6422 872.234 69.8897 875.791C73.8551 876.02 77.8757 876.218 81.9009 876.411C76.6121 872.547 71.3968 868.636 66.1677 864.726H66.1815ZM79.9664 864.216C75.9458 864.381 71.939 864.533 67.9873 864.675C73.2899 868.639 78.6216 872.591 83.9824 876.53C87.9709 876.714 92.0007 876.875 96.0443 877.027C90.6268 872.785 85.292 868.498 79.9527 864.23L79.9664 864.216ZM828.336 699.941C832.012 698.42 835.665 696.922 839.332 695.378C840.949 687.162 842.613 679.075 844.129 670.565C840.765 672.826 837.397 674.986 834.02 677.21C832.196 685.026 830.229 692.378 828.322 699.941H828.336ZM816.04 705.046C819.716 703.557 823.369 702.004 827.036 700.483C828.92 693.081 830.836 685.779 832.637 678.138C829.255 680.371 825.878 682.632 822.491 684.81C820.387 691.73 818.186 698.351 816.026 705.046H816.04ZM803.771 709.953C807.406 708.497 811.036 707.082 814.68 705.602C816.803 699.045 818.944 692.552 820.998 685.793C817.648 687.939 814.298 689.965 810.949 692.07C808.587 698.172 806.156 704.017 803.758 709.953H803.771ZM791.466 714.856C795.082 713.432 798.712 711.971 802.333 710.523C804.686 704.747 807.047 699.036 809.34 693.062C805.986 695.162 802.636 697.28 799.277 699.339C796.695 704.623 794.062 709.705 791.452 714.856H791.466ZM779.225 719.598C782.786 718.22 786.343 716.873 789.908 715.463C792.44 710.5 794.963 705.561 797.462 700.465C794.177 702.468 790.887 704.398 787.597 706.36C784.822 710.863 782.005 715.205 779.211 719.598H779.225ZM767.044 724.258C770.527 722.937 774.013 721.605 777.502 720.26C780.176 716.074 782.86 711.892 785.506 707.61C782.29 709.535 779.041 711.456 775.806 713.34C772.875 717.025 769.952 720.628 767.03 724.258H767.044ZM755.055 728.761C758.373 727.535 761.692 726.293 765.013 725.034C767.73 721.689 770.436 718.319 773.132 714.925C770.076 716.694 767.021 718.413 763.97 720.15C760.987 723.031 758.015 725.893 755.042 728.761H755.055ZM743.678 732.937C746.628 731.858 749.574 730.782 752.528 729.689C755.111 727.217 757.687 724.725 760.257 722.213C757.561 723.744 754.864 725.252 752.165 726.734C749.326 728.825 746.495 730.87 743.664 732.937H743.678ZM734.447 736.324C736.285 735.658 738.146 734.945 739.988 734.288C741.459 733.227 742.92 732.138 744.386 731.072C741.059 732.873 737.746 734.56 734.433 736.324H734.447ZM21.4816 854.502C17.5345 854.962 13.5966 855.393 9.72767 855.821C14.7393 858.762 19.7937 861.681 24.8911 864.579C28.8274 864.524 32.799 864.459 36.8059 864.386C31.6625 861.111 26.5545 857.817 21.4816 854.502ZM35.0506 852.954L23.1955 854.332C28.3603 857.702 33.5679 861.047 38.8185 864.367C42.8023 864.289 46.7907 864.211 50.8389 864.106C45.5394 860.396 40.2766 856.679 35.0506 852.954ZM48.6149 851.387L36.668 852.765C41.9706 856.542 47.3176 860.298 52.7091 864.032C56.7067 863.926 60.7181 863.811 64.7709 863.687C59.3519 859.604 53.9665 855.504 48.6149 851.387ZM62.1609 849.792L50.214 851.203C55.6422 855.366 61.1087 859.501 66.6134 863.609C70.5927 863.481 74.6317 863.324 78.6798 863.15C73.1261 858.732 67.6197 854.28 62.1609 849.792ZM822.363 723.164L834.25 720.655C835.945 712.908 837.494 704.733 839.074 696.66C835.398 698.209 831.69 699.72 827.996 701.255C826.144 708.625 824.338 716.088 822.363 723.164ZM809.23 725.921C813.163 725.098 817.129 724.258 821.085 723.426C823.033 716.437 824.848 709.071 826.696 701.788C822.997 703.323 819.289 704.89 815.599 706.383C813.494 712.968 811.417 719.617 809.23 725.921ZM796.111 728.641C800.045 727.823 803.964 727.019 807.907 726.192C810.085 719.966 812.153 713.418 814.243 706.935C810.567 708.432 806.891 709.866 803.215 711.336C800.854 717.163 798.528 723.054 796.111 728.646V728.641ZM783.007 731.361C786.903 730.557 790.818 729.735 794.738 728.926C797.132 723.412 799.443 717.641 801.763 711.925C798.087 713.395 794.411 714.888 790.735 716.327C788.162 721.381 785.621 726.495 783.007 731.366V731.361ZM769.952 734.026C773.821 733.236 777.667 732.46 781.55 731.66C784.128 726.886 786.641 721.896 789.159 716.956C785.515 718.381 781.881 719.745 778.242 721.147C775.489 725.461 772.751 729.854 769.952 734.031V734.026ZM756.953 736.678L768.367 734.353C771.124 730.268 773.812 726.022 776.519 721.785C772.902 723.164 769.291 724.542 765.688 725.921C762.766 729.551 759.889 733.199 756.953 736.682V736.678ZM744.087 739.274L755.17 737.041C758.019 733.677 760.836 730.19 763.657 726.702C760.137 728.03 756.631 729.317 753.121 730.617C750.116 733.539 747.115 736.489 744.087 739.279V739.274ZM731.497 741.797L741.974 739.697C744.859 737.036 747.726 734.298 750.594 731.545C747.224 732.786 743.854 734.02 740.485 735.249C737.493 737.459 734.502 739.678 731.52 741.801L731.497 741.797ZM719.522 744.186C722.596 743.579 725.689 742.954 728.768 742.348C731.451 740.464 734.131 738.549 736.809 736.604C733.794 737.693 730.789 738.759 727.784 739.821C725.032 741.296 722.275 742.775 719.522 744.191V744.186ZM710.098 746.024L715.552 744.949C717.317 744.03 719.081 743.166 720.846 742.247C717.276 743.533 713.673 744.811 710.098 746.047V746.024ZM17.5713 840.336C13.6104 841.163 9.67253 841.99 5.79437 842.812C11.0602 846.351 16.4134 849.866 21.7803 853.381L33.7272 852.002C28.3143 848.147 22.9061 844.246 17.5713 840.336ZM30.8554 837.579C26.8731 838.397 22.9275 839.213 19.0187 840.028C24.4132 843.98 29.8904 847.904 35.3814 851.823C39.3653 851.364 43.3399 850.904 47.3881 850.445C41.8419 846.167 36.3004 841.889 30.8554 837.579ZM44.1532 834.868C40.1418 835.676 36.2085 836.485 32.2706 837.294C37.7846 841.627 43.3675 845.946 48.9687 850.252L61.003 848.836C55.3558 844.195 49.7131 839.545 44.1532 834.872V834.868ZM815.681 745.638L828.446 745.178C830.321 737.491 832.2 729.808 833.96 721.827L822.013 724.349C819.969 731.632 817.814 738.608 815.681 745.643V745.638ZM801.75 746.176C805.968 746.001 810.223 745.845 814.464 745.679C816.582 738.741 818.705 731.807 820.731 724.607C816.747 725.448 812.75 726.293 808.784 727.12C806.496 733.645 804.12 739.88 801.75 746.18V746.176ZM787.836 746.768C792.059 746.589 796.268 746.401 800.509 746.226C802.852 740.023 805.196 733.82 807.466 727.387C803.482 728.218 799.526 729.032 795.555 729.854C793.024 735.644 790.423 741.185 787.836 746.773V746.768ZM773.977 747.361C778.145 747.173 782.372 747.007 786.563 746.823C789.118 741.31 791.682 735.837 794.177 730.148C790.221 730.971 786.241 731.802 782.299 732.611C779.56 737.652 776.762 742.486 773.977 747.366V747.361ZM760.147 748.032C764.319 747.83 768.459 747.618 772.654 747.425C775.411 742.633 778.141 737.859 780.838 732.914C776.891 733.728 772.98 734.518 769.047 735.318C766.106 739.655 763.12 743.841 760.147 748.037V748.032ZM746.398 748.703C750.493 748.496 754.623 748.303 758.736 748.101C761.654 743.965 764.576 739.88 767.466 735.644C763.567 736.44 759.669 737.234 755.772 738.024C752.657 741.659 749.528 745.165 746.398 748.707V748.703ZM732.738 749.42C736.777 749.204 740.806 748.96 744.868 748.776C747.915 745.339 750.961 741.916 753.985 738.392L742.497 740.689C739.249 743.658 735.991 746.529 732.738 749.424V749.42ZM719.247 750.155C723.149 749.934 727.064 749.721 730.992 749.516C734.125 746.759 737.259 743.961 740.379 741.121C736.648 741.875 732.921 742.622 729.199 743.363C725.886 745.679 722.564 747.899 719.247 750.159V750.155ZM706.082 750.895C709.758 750.679 713.434 750.472 717.151 750.265C720.258 748.161 723.368 746.052 726.47 743.91L715.902 746.006C712.625 747.651 709.354 749.268 706.082 750.899V750.895ZM693.625 751.644C696.842 751.451 700.058 751.248 703.316 751.06C706.174 749.645 709.029 748.223 711.881 746.796L702.618 748.634C699.617 749.645 696.621 750.637 693.625 751.653V751.644ZM684.219 752.209C685.965 752.098 687.734 752.002 689.49 751.892L694.429 750.228C691.011 750.904 687.624 751.552 684.219 752.213V752.209ZM12.9487 823.307C9.00626 824.483 5.09134 825.664 1.23616 826.849C6.71337 830.967 12.2534 835.074 17.8562 839.173C21.7895 838.351 25.7458 837.528 29.7526 836.706C24.1099 832.249 18.4857 827.782 12.9487 823.307ZM26.0077 819.47C22.0437 820.613 18.1227 821.763 14.2445 822.921C19.8259 827.43 25.467 831.928 31.1678 836.416C35.1241 835.607 39.0758 834.794 43.1147 833.986C37.3649 829.158 31.6625 824.319 26.0077 819.47ZM808.922 767.276C813.407 767.767 817.942 768.3 822.459 768.81C824.44 761.486 826.319 753.886 828.184 746.245C823.896 746.395 819.619 746.548 815.355 746.704C813.246 753.693 811.128 760.631 808.922 767.276ZM794.218 765.7C798.689 766.159 803.197 766.655 807.7 767.142C809.901 760.535 812.015 753.661 814.133 746.764C809.86 746.925 805.577 747.085 801.331 747.26C799.002 753.491 796.663 759.74 794.241 765.718L794.218 765.7ZM779.574 764.234C784.04 764.669 788.518 765.116 793.005 765.576C795.413 759.657 797.747 753.486 800.077 747.315C795.804 747.49 791.562 747.678 787.307 747.862C784.776 753.408 782.221 758.945 779.597 764.252L779.574 764.234ZM765.026 762.791C769.428 763.195 773.909 763.673 778.352 764.11C780.957 758.853 783.503 753.385 786.039 747.917C781.812 748.101 777.539 748.266 773.334 748.459C770.6 753.312 767.852 758.164 765.063 762.809L765.026 762.791ZM750.483 761.518C754.908 761.909 759.301 762.267 763.754 762.676C766.538 758.081 769.268 753.302 772.025 748.524C767.779 748.721 763.584 748.937 759.361 749.139C756.42 753.33 753.488 757.53 750.506 761.537L750.483 761.518ZM736.074 760.259C740.402 760.613 744.804 761.022 749.155 761.403C752.11 757.442 755.019 753.325 757.927 749.208C753.746 749.41 749.541 749.608 745.383 749.819C742.314 753.353 739.226 756.896 736.115 760.278L736.074 760.259ZM721.71 759.147C726.024 759.473 730.316 759.781 734.658 760.135C737.742 756.808 740.797 753.348 743.848 749.893C739.681 750.109 735.577 750.352 731.419 750.559C728.216 753.491 724.986 756.386 721.733 759.166L721.71 759.147ZM707.507 758.09C711.697 758.384 715.915 758.706 720.129 759.009C723.345 756.289 726.502 753.459 729.677 750.633C725.611 750.853 721.54 751.092 717.496 751.299C714.192 753.61 710.866 755.917 707.53 758.109L707.507 758.09ZM693.51 757.125C697.56 757.386 701.622 757.661 705.696 757.952C708.936 755.83 712.171 753.629 715.401 751.428L703.582 752.112C700.247 753.817 696.888 755.522 693.533 757.167L693.51 757.125ZM679.781 756.28C683.599 756.51 687.417 756.739 691.268 756.983C694.452 755.453 697.641 753.863 700.83 752.278L689.687 752.949C686.402 754.088 683.094 755.214 679.803 756.298L679.781 756.28ZM667.103 755.499C670.32 755.678 673.609 755.908 676.84 756.101C679.735 755.151 682.635 754.183 685.543 753.197L675.893 753.799L667.103 755.499ZM657.334 755.039C659.071 755.127 660.785 755.195 662.526 755.287L667.222 754.368C663.946 754.607 660.642 754.819 657.357 755.044L657.334 755.039ZM801.616 788.123C806.349 789.24 811.165 790.453 815.934 791.615C818.057 784.518 820.128 777.267 822.147 769.863C817.611 769.348 813.053 768.815 808.545 768.323C806.299 775.087 803.973 781.653 801.625 788.141L801.616 788.123ZM786.2 784.553C790.936 785.637 795.684 786.74 800.445 787.861C802.783 781.428 805.081 774.903 807.337 768.208C802.806 767.717 798.276 767.225 793.777 766.761C791.314 772.831 788.769 778.713 786.2 784.553ZM770.853 781.088C775.564 782.13 780.294 783.202 785.042 784.305C787.583 778.524 790.097 772.666 792.569 766.651C788.047 766.185 783.541 765.733 779.05 765.295C776.371 770.676 773.619 775.887 770.867 781.088H770.853ZM755.616 777.711C760.271 778.708 764.999 779.783 769.695 780.826C772.424 775.684 775.145 770.497 777.819 765.157C773.343 764.698 768.827 764.238 764.383 763.839C761.507 768.571 758.566 773.139 755.63 777.711H755.616ZM740.402 774.554C745.07 775.519 749.721 776.456 754.426 777.463C757.339 772.941 760.248 768.406 763.11 763.724C758.617 763.31 754.173 762.943 749.707 762.557C746.642 766.646 743.527 770.589 740.416 774.554H740.402ZM725.358 771.434C729.921 772.353 734.58 773.35 739.175 774.297C742.254 770.386 745.332 766.485 748.365 762.437C743.949 762.056 739.497 761.638 735.113 761.279C731.897 764.739 728.634 768.071 725.372 771.434H725.358ZM710.323 768.553C714.918 769.431 719.454 770.249 724.081 771.168C727.297 767.859 730.514 764.565 733.73 761.155C729.301 760.797 724.935 760.494 720.533 760.158C717.138 763.016 713.733 765.769 710.337 768.553H710.323ZM695.491 765.75C699.934 766.563 704.437 767.436 708.922 768.287C712.262 765.557 715.603 762.842 718.934 760.043C714.615 759.717 710.277 759.382 705.99 759.078C702.507 761.339 699.001 763.531 695.505 765.75H695.491ZM680.787 763.113C685.143 763.875 689.519 764.655 693.915 765.451C697.329 763.296 700.752 761.146 704.161 758.945C699.911 758.646 695.688 758.371 691.466 758.1C687.932 759.795 684.371 761.44 680.814 763.113H680.787ZM666.303 760.645C670.494 761.344 674.698 762.059 678.917 762.791C682.349 761.187 685.782 759.575 689.214 757.962C685.125 757.698 681.047 757.447 676.982 757.208C673.444 758.366 669.892 759.496 666.331 760.645H666.303ZM652.454 758.311C656.263 758.917 660.155 759.611 663.992 760.25C667.333 759.175 670.669 758.109 674.014 757.033C670.209 756.818 666.395 756.574 662.618 756.39L652.454 758.311ZM639.17 756.294C642.524 756.808 645.847 757.286 649.219 757.819L657.982 756.156C654.628 755.981 651.287 755.825 647.951 755.669C645.033 755.871 642.129 756.087 639.198 756.294H639.17ZM629.613 754.846C631.17 755.076 632.746 755.306 634.309 755.558L638.904 755.228C635.819 755.096 632.731 754.977 629.64 754.869L629.613 754.846ZM794.035 808.212C798.97 809.935 804.01 811.796 809 813.588C811.257 806.76 813.471 799.804 815.617 792.677C810.829 791.51 805.991 790.292 801.239 789.171C798.905 795.656 796.513 802.003 794.062 808.212H794.035ZM777.952 802.726C782.933 804.421 787.877 806.057 792.895 807.78C795.346 801.614 797.743 795.308 800.086 788.863C795.284 787.732 790.515 786.634 785.745 785.545C783.218 791.399 780.626 797.143 777.984 802.726H777.952ZM761.998 797.35C766.906 798.976 771.864 800.663 776.822 802.344C779.45 796.794 782.037 791.101 784.592 785.306C779.822 784.216 775.065 783.144 770.32 782.09C767.604 787.259 764.843 792.383 762.031 797.35H761.998ZM746.141 792.139C751.016 793.711 755.942 795.356 760.845 796.968C763.643 792.038 766.4 786.961 769.116 781.805C764.383 780.757 759.623 779.678 754.931 778.676C752.082 783.243 749.151 787.769 746.173 792.139H746.141ZM730.334 787.167C735.21 788.693 740.071 790.195 744.988 791.762C747.952 787.425 750.874 782.945 753.787 778.437C749.045 777.426 744.354 776.475 739.644 775.501C736.574 779.448 733.496 783.386 730.367 787.167H730.334ZM714.712 782.264C719.463 783.703 724.361 785.302 729.14 786.8C732.25 783.046 735.325 779.158 738.399 775.253C733.753 774.297 729.039 773.268 724.43 772.353C721.255 775.698 718.029 779.053 714.767 782.264H714.712ZM699.089 777.669C703.904 779.085 708.646 780.427 713.508 781.879C716.724 778.694 719.941 775.386 723.157 772.073C718.461 771.154 713.861 770.322 709.202 769.435C705.88 772.224 702.512 775.023 699.125 777.683L699.089 777.669ZM683.686 773.18C688.346 774.504 693.074 775.914 697.774 777.288C701.133 774.655 704.469 771.907 707.81 769.173C703.247 768.305 698.657 767.409 694.126 766.582C690.689 768.815 687.211 771.062 683.732 773.194L683.686 773.18ZM668.376 768.916C672.971 770.18 677.598 771.443 682.257 772.762C685.699 770.662 689.15 768.466 692.568 766.288C688.038 765.465 683.548 764.689 679.059 763.903C675.53 765.599 671.969 767.308 668.413 768.93L668.376 768.916ZM653.212 764.84C657.697 766.03 662.196 767.23 666.722 768.47C670.209 766.885 673.706 765.226 677.198 763.586C672.808 762.823 668.434 762.077 664.075 761.348C660.477 762.534 656.852 763.719 653.24 764.854L653.212 764.84ZM638.508 760.948C642.727 762.024 647.028 763.2 651.282 764.321C654.77 763.223 658.271 762.083 661.773 760.953C657.591 760.264 653.401 759.575 649.256 758.904L638.508 760.948ZM623.929 757.373C627.945 758.357 631.924 759.299 635.972 760.323L646.021 758.417C642.088 757.796 638.182 757.217 634.276 756.634C630.839 756.891 627.379 757.135 623.947 757.387L623.929 757.373ZM610.847 754.157C614.036 754.911 617.28 755.742 620.496 756.523C623.446 756.303 626.428 756.096 629.406 755.885C626.35 755.425 623.23 754.92 620.216 754.506C617.105 754.41 613.967 754.276 610.865 754.18L610.847 754.157ZM601.974 752.066C603.224 752.356 604.437 752.599 605.691 752.893C606.817 752.926 607.961 752.976 609.091 753.013C606.724 752.719 604.357 752.419 601.992 752.112L601.974 752.066ZM786.136 827.488C791.291 829.786 796.571 832.295 801.795 834.707C804.157 828.219 806.39 821.381 808.66 814.59C803.652 812.789 798.588 810.914 793.63 809.191C791.19 815.431 788.709 821.579 786.154 827.511L786.136 827.488ZM769.392 820.182C774.616 822.48 779.763 824.644 785.015 827.001C787.56 821.106 790.023 814.967 792.477 808.787C787.422 807.031 782.469 805.386 777.465 803.682C774.841 809.32 772.149 814.834 769.41 820.205L769.392 820.182ZM752.813 812.954C757.932 815.146 763.124 817.439 768.298 819.704C771.028 814.374 773.702 808.874 776.353 803.3C771.372 801.614 766.387 799.914 761.447 798.278C758.617 803.293 755.745 808.192 752.831 812.977L752.813 812.954ZM736.322 805.988C741.44 808.125 746.564 810.275 751.733 812.486C754.622 807.725 757.483 802.862 760.317 797.897C755.363 796.261 750.405 794.625 745.498 793.044C742.484 797.478 739.419 801.766 736.34 806.011L736.322 805.988ZM719.931 799.261C725.018 801.334 730.095 803.397 735.233 805.538C738.288 801.329 741.33 797.06 744.345 792.672C739.391 791.082 734.493 789.566 729.581 788.031C726.401 791.891 723.175 795.59 719.95 799.284L719.931 799.261ZM703.753 792.654C708.72 794.625 713.811 796.789 718.824 798.806C722.04 795.13 725.234 791.454 728.405 787.668C723.566 786.161 718.645 784.544 713.848 783.073C710.516 786.377 707.167 789.52 703.771 792.677L703.753 792.654ZM687.541 786.428C692.596 788.367 697.522 790.205 702.604 792.213C705.944 789.083 709.294 785.963 712.612 782.733C707.7 781.249 702.898 779.903 698.032 778.478C694.563 781.208 691.057 783.818 687.56 786.451L687.541 786.428ZM671.615 780.312C676.477 782.15 681.426 784.075 686.319 785.963C689.784 783.363 693.248 780.776 696.699 778.097C691.934 776.718 687.133 775.262 682.409 773.925C678.848 776.121 675.241 778.212 671.634 780.335L671.615 780.312ZM655.749 774.485C660.596 776.25 665.398 777.982 670.32 779.815C673.881 777.72 677.442 775.652 680.998 773.506C676.233 772.165 671.533 770.896 666.814 769.605C663.142 771.282 659.457 772.882 655.767 774.508L655.749 774.485ZM640.08 768.889C644.785 770.549 649.515 772.234 654.269 773.943C657.895 772.344 661.52 770.768 665.146 769.141C660.514 767.879 655.9 766.64 651.305 765.424C647.57 766.628 643.843 767.758 640.08 768.911V768.889ZM624.788 763.508C629.273 765.038 633.845 766.683 638.375 768.277C642.051 767.156 645.677 766.044 649.339 764.909C644.863 763.733 640.379 762.547 635.944 761.426L624.788 763.508ZM609.487 758.453C613.875 759.901 618.217 761.293 622.651 762.8L633.39 760.797C629.029 759.699 624.724 758.665 620.409 757.612C616.765 757.911 613.149 758.196 609.505 758.476L609.487 758.453ZM595.114 753.707C598.973 754.938 602.925 756.294 606.826 757.576L617.032 756.785C613.213 755.866 609.317 754.851 605.544 753.969C602.052 753.886 598.606 753.817 595.132 753.73L595.114 753.707ZM581.434 749.452C584.839 750.504 588.171 751.46 591.603 752.549L599.966 752.733C596.432 751.924 592.958 751.184 589.448 750.403C586.778 750.086 584.127 749.815 581.453 749.475L581.434 749.452ZM571.284 746.382L575.672 747.71L578.971 748.082C576.44 747.559 573.83 746.934 571.302 746.405L571.284 746.382ZM777.722 846.02C783.076 848.892 788.516 851.901 793.947 854.888C796.474 848.588 799.002 842.339 801.446 835.741C796.199 833.315 790.878 830.81 785.727 828.495C783.135 834.537 780.438 840.29 777.741 846.043L777.722 846.02ZM760.468 836.977C765.877 839.821 771.202 842.551 776.661 845.473C779.349 839.748 782.046 834.022 784.652 828.012C779.354 825.646 774.189 823.463 768.941 821.161C766.152 826.592 763.313 831.803 760.468 836.977ZM743.389 828.017C748.668 830.732 754.054 833.604 759.393 836.412C762.237 831.265 765.077 826.087 767.848 820.706C762.651 818.409 757.431 816.111 752.285 813.919C749.344 818.739 746.371 823.408 743.38 828.017H743.389ZM726.387 819.406C731.704 822.08 736.956 824.699 742.355 827.461C745.337 822.866 748.301 818.234 751.228 813.451C746.026 811.227 740.875 809.067 735.729 806.921C732.617 811.167 729.492 815.328 726.355 819.406H726.387ZM709.464 811.02C714.716 813.607 719.977 816.208 725.28 818.873C728.408 814.829 731.512 810.694 734.594 806.466C729.429 804.316 724.31 802.23 719.192 800.148C715.975 803.838 712.74 807.486 709.464 811.02ZM692.789 802.822C697.935 805.294 703.192 807.932 708.412 810.487C711.665 806.976 714.891 803.36 718.107 799.698C713.053 797.639 707.916 795.493 702.907 793.508C699.539 796.656 696.18 799.803 692.798 802.822H692.789ZM676.091 795.011C681.292 797.446 686.42 799.781 691.677 802.303C695.05 799.303 698.395 796.192 701.74 793.063C696.612 791.041 691.603 789.175 686.531 787.222C683.066 789.846 679.597 792.488 676.1 795.011H676.091ZM659.696 787.342C664.723 789.639 669.855 792.093 674.937 794.473C678.411 791.974 681.867 789.364 685.327 786.758C680.359 784.851 675.346 782.876 670.43 781.038C666.864 783.156 663.289 785.306 659.705 787.342H659.696ZM643.296 779.99C648.351 782.237 653.359 784.42 658.46 786.749C662.016 784.737 665.568 782.614 669.125 780.523C664.135 778.657 659.236 776.921 654.297 775.128C650.648 776.778 646.972 778.437 643.296 780.008V779.99ZM627.09 772.886C632.013 775.015 636.96 777.182 641.932 779.388C645.562 777.84 649.196 776.208 652.831 774.6C647.985 772.845 643.16 771.12 638.357 769.426C634.607 770.602 630.844 771.774 627.099 772.905L627.09 772.886ZM611.224 766.044C615.961 768.034 620.781 770.152 625.574 772.22C629.25 771.112 632.958 769.955 636.652 768.815C631.942 767.165 627.237 765.511 622.578 763.926L611.224 766.044ZM595.316 759.552C600.003 761.463 604.634 763.301 609.367 765.286C613.043 764.606 616.747 763.908 620.441 763.218C615.818 761.651 611.251 760.176 606.688 758.674C602.897 759.005 599.097 759.271 595.325 759.57L595.316 759.552ZM580.185 753.376C584.43 755.058 588.791 756.896 593.083 758.637C596.708 758.352 600.37 758.072 604.023 757.796C599.833 756.418 595.559 754.943 591.405 753.624C587.665 753.555 583.916 753.463 580.194 753.394L580.185 753.376ZM565.223 747.614C569.294 749.176 573.274 750.614 577.382 752.209C580.768 752.268 584.191 752.356 587.605 752.438C583.497 751.147 579.491 749.989 575.419 748.763C572.028 748.404 568.619 748.004 565.232 747.632L565.223 747.614ZM551.723 742.523C554.834 743.68 557.963 744.866 561.097 746.056C563.932 746.364 566.804 746.704 569.667 747.03C566.606 746.111 563.505 745.137 560.477 744.246C557.573 743.699 554.641 743.106 551.732 742.541L551.723 742.523ZM543.659 739.476C544.298 739.715 544.955 739.977 545.594 740.211C546.448 740.372 547.317 740.551 548.171 740.717C546.664 740.308 545.18 739.922 543.668 739.495L543.659 739.476ZM769.199 863.94C774.786 867.377 780.409 870.872 786.067 874.426C788.663 868.544 791.085 862.143 793.566 855.922C788.116 852.926 782.657 849.907 777.281 847.026C774.602 852.742 771.956 858.523 769.199 863.94ZM751.343 853.142C756.944 856.533 762.485 859.828 768.137 863.297C770.894 857.911 773.527 852.131 776.192 846.452C770.715 843.52 765.362 840.777 759.935 837.923C757.086 843.093 754.256 848.244 751.333 853.142H751.343ZM733.716 842.482C739.175 845.698 744.772 849.167 750.304 852.512C753.213 847.642 756.03 842.482 758.86 837.349C753.493 834.528 748.085 831.642 742.778 828.913C739.791 833.526 736.767 838.093 733.707 842.482H733.716ZM716.122 832.276C721.636 835.493 727.1 838.553 732.696 841.866C735.747 837.501 738.739 832.942 741.725 828.366C736.322 825.609 731.019 822.962 725.675 820.274C722.505 824.354 719.32 828.389 716.113 832.276H716.122ZM698.726 822.277C704.154 825.365 709.611 828.502 715.097 831.688C718.314 827.805 721.457 823.803 724.609 819.741C719.273 817.058 713.969 814.423 708.697 811.838C705.384 815.399 702.057 818.863 698.716 822.277H698.726ZM681.517 812.536C686.866 815.514 692.297 818.62 697.706 821.689C701.032 818.298 704.341 814.838 707.631 811.309C702.383 808.732 697.09 806.089 691.902 803.599C688.447 806.65 684.977 809.595 681.508 812.536H681.517ZM664.341 803.195C669.718 806.122 675.029 808.948 680.47 811.966C683.921 809.049 687.362 806.108 690.795 803.08C685.497 800.539 680.318 798.182 675.075 795.728C671.496 798.273 667.912 800.727 664.332 803.195H664.341ZM647.492 794.032C652.684 796.789 658.005 799.753 663.262 802.606C666.818 800.157 670.379 797.717 673.927 795.19C668.794 792.787 663.606 790.301 658.533 787.985C654.844 790.048 651.163 792.024 647.482 794.032H647.492ZM630.628 785.27C635.876 787.99 641.045 790.595 646.357 793.412C650.01 791.422 653.663 789.46 657.311 787.415C652.123 785.054 647.06 782.866 641.927 780.587C638.15 782.182 634.387 783.707 630.619 785.27H630.628ZM614.026 776.764C619.109 779.331 624.221 781.951 629.365 784.622C633.096 783.078 636.822 781.561 640.558 779.985C635.503 777.757 630.499 775.542 625.518 773.392C621.668 774.54 617.849 775.634 614.017 776.764H614.026ZM597.719 768.549C602.64 770.975 607.649 773.534 612.625 776.047C616.411 774.935 620.184 773.846 623.979 772.716C619.053 770.598 614.128 768.47 609.275 766.43L597.719 768.549ZM581.347 760.7C586.25 763.048 591.098 765.295 596.051 767.754C599.837 767.06 603.6 766.375 607.401 765.672C602.521 763.636 597.751 761.716 592.903 759.758C589.03 760.066 585.193 760.383 581.338 760.7H581.347ZM565.623 753.155C570.163 755.274 574.813 757.58 579.408 759.772C583.167 759.464 586.893 759.147 590.666 758.853C586.176 757.015 581.586 755.085 577.143 753.339C573.278 753.252 569.446 753.206 565.614 753.155H565.623ZM549.835 745.983C554.342 748.027 558.767 749.934 563.326 752.053C566.951 752.099 570.544 752.121 574.188 752.177C569.667 750.408 565.278 748.827 560.807 747.122C557.122 746.724 553.462 746.344 549.825 745.983H549.835ZM534.745 739.246C538.727 740.995 542.723 742.778 546.733 744.595C550.055 744.926 553.336 745.215 556.677 745.564C552.867 744.126 549.017 742.637 545.244 741.25C541.747 740.57 538.219 739.894 534.745 739.246ZM521.649 733.448C524.636 734.725 527.714 736.14 530.72 737.454C533.532 737.96 536.298 738.415 539.124 738.943C535.848 737.758 532.691 736.733 529.438 735.584C526.846 734.886 524.213 734.128 521.649 733.457V733.448ZM513.227 729.983C513.686 730.176 514.146 730.351 514.605 730.544L515.524 730.764C514.743 730.516 513.98 730.245 513.227 729.992V729.983ZM759.926 880.845C765.693 884.806 771.414 888.693 777.268 892.792C780.057 887.053 782.892 881.442 785.584 875.423C779.923 871.863 774.302 868.367 768.721 864.933C765.858 870.451 762.871 875.584 759.926 880.854V880.845ZM741.656 868.475C747.391 872.354 753.089 876.167 758.874 880.133C761.81 874.881 764.797 869.776 767.655 864.271C761.985 860.788 756.42 857.484 750.8 854.079C747.809 859.065 744.721 863.733 741.656 868.485V868.475ZM723.64 856.271C729.218 859.947 734.971 863.954 740.641 867.759C743.697 863.03 746.78 858.385 749.771 853.431C744.216 850.073 738.596 846.608 733.11 843.359C729.99 847.821 726.81 852.039 723.64 856.28V856.271ZM705.595 844.609C711.293 848.317 716.853 851.791 722.624 855.609C725.79 851.382 728.97 847.178 732.081 842.744C726.456 839.412 720.988 836.338 715.424 833.094C712.175 837.069 708.89 840.86 705.595 844.618V844.609ZM687.808 833.122C693.359 836.664 698.974 840.313 704.589 843.961C707.879 840.216 711.16 836.453 714.404 832.538C708.89 829.346 703.403 826.192 697.944 823.077C694.596 826.508 691.217 829.859 687.808 833.131V833.122ZM670.177 821.956C675.691 825.402 681.237 828.926 686.811 832.478C690.196 829.216 693.565 825.888 696.92 822.493C691.466 819.396 686.007 816.286 680.621 813.304C677.152 816.24 673.674 819.153 670.177 821.956ZM652.601 811.176C658.115 814.553 663.574 817.848 669.143 821.331C672.631 818.528 676.105 815.647 679.565 812.72C674.092 809.678 668.734 806.825 663.321 803.884C659.76 806.356 656.185 808.823 652.601 811.185V811.176ZM635.365 800.608C640.691 803.824 646.168 807.243 651.558 810.542C655.133 808.194 658.69 805.749 662.251 803.3C656.953 800.424 651.581 797.428 646.347 794.648C642.685 796.656 639.028 798.692 635.365 800.612V800.608ZM618.056 790.466C623.474 793.646 628.79 796.656 634.276 799.941C637.925 798.03 641.569 796.022 645.208 794.032C639.832 791.179 634.607 788.564 629.291 785.812C625.546 787.379 621.797 788.969 618.056 790.471V790.466ZM601.023 780.601C606.275 783.611 611.591 786.694 616.885 789.791C620.602 788.302 624.328 786.726 628.05 785.196C622.849 782.508 617.656 779.834 612.515 777.238C608.66 778.34 604.823 779.484 601.023 780.601ZM584.26 771.044C589.365 773.902 594.562 776.898 599.731 779.852C603.513 778.768 607.318 777.633 611.113 776.516C606.022 773.948 600.931 771.384 595.895 768.911L584.26 771.044ZM567.447 761.854C572.548 764.611 577.584 767.317 582.744 770.198C586.558 769.504 590.399 768.82 594.231 768.094C589.177 765.612 584.201 763.273 579.201 760.879L567.447 761.854ZM551.236 753.031C555.992 755.558 560.886 758.297 565.697 760.916C569.524 760.59 573.388 760.278 577.248 759.96C572.525 757.709 567.7 755.31 563.004 753.142C559.077 753.089 555.154 753.053 551.236 753.031ZM534.97 744.59C539.735 747.053 544.408 749.378 549.214 751.942C553.01 751.942 556.833 752.007 560.66 752.048C555.827 749.815 551.158 747.83 546.379 745.675C542.572 745.295 538.768 744.93 534.97 744.581V744.59ZM519.287 736.595C523.619 738.779 527.976 741 532.36 743.258C535.99 743.584 539.648 743.938 543.305 744.292C538.977 742.353 534.616 740.372 530.334 738.507C526.645 737.854 522.963 737.214 519.287 736.586V736.595ZM504.822 729.289C508.498 731.095 512.308 733.071 516.029 734.932C519.444 735.511 522.881 736.113 526.313 736.71C522.219 734.941 518.203 733.287 514.15 731.577L504.822 729.289ZM490.628 722.576C493.725 724.051 496.763 725.438 499.883 726.95C502.378 727.557 504.887 728.186 507.386 728.788C504.092 727.41 500.802 726.059 497.539 724.735C495.214 723.977 492.944 723.306 490.628 722.567V722.576ZM481.535 718.275L483.414 719.166L485.84 719.924C484.393 719.341 482.982 718.831 481.553 718.266L481.535 718.275ZM270.134 991.781C273.392 994.051 276.65 996.376 279.912 998.591C470.369 1101.84 665.15 1122.3 776.794 893.775C770.931 889.681 765.183 885.775 759.398 881.805C641.858 1091.39 453.115 1079.82 270.134 991.781ZM251.754 978.755C255.692 981.604 259.63 984.439 263.577 987.223C448.189 1077.99 639.57 1092.33 758.327 881.079C752.524 877.105 746.807 873.268 741.055 869.381C616.062 1062.35 429.63 1055.54 251.768 978.755H251.754ZM233.962 965.71C238.383 969.009 242.822 972.23 247.251 975.456C426.097 1053.97 614.173 1062.53 740.025 868.696C734.346 864.859 728.565 860.852 722.969 857.144C590.61 1033.2 406.655 1031.17 233.976 965.71H233.962ZM216.331 952.269C220.991 955.853 225.641 959.497 230.314 963.012C403.678 1029.76 588.878 1033.1 721.949 856.482C716.159 852.655 710.571 849.158 704.841 845.455C565.182 1004.1 383.754 1006.51 216.345 952.269H216.331ZM198.549 938.425C203.585 942.407 208.639 946.345 213.712 950.238C381.507 1005.32 563.693 1003.71 703.858 844.788C698.22 841.112 692.573 837.436 686.999 833.898C539.937 975.194 360.876 981.732 198.563 938.425H198.549ZM180.822 924.217C185.992 928.42 191.183 932.58 196.394 936.697C358.95 980.616 538.554 974.674 685.984 833.255C680.369 829.68 674.787 826.157 669.24 822.686C514.872 946.438 338.107 956.809 180.835 924.217H180.822ZM163.135 909.61C168.388 913.984 173.635 918.391 178.919 922.696C336.343 955.78 513.521 945.85 668.22 822.066C662.609 818.565 657.109 815.243 651.567 811.847C489.939 917.862 315.431 931.734 163.149 909.61H163.135ZM145.215 894.524C150.628 899.138 156.065 903.719 161.527 908.268C313.869 930.728 488.639 917.191 650.52 811.199C645.093 807.881 639.57 804.403 634.212 801.191C465.246 889.534 292.728 906.531 145.229 894.524H145.215ZM127.171 878.97C132.685 883.78 138.232 888.562 143.814 893.316C291.312 905.552 463.968 888.794 633.123 800.525C627.577 797.207 622.219 794.193 616.742 790.981C440.52 861.473 269.95 881.171 127.184 878.97H127.171ZM109.03 862.888C114.631 867.887 120.228 872.91 125.884 877.858C268.581 880.216 439.206 860.664 615.543 790.283C610.185 787.154 604.832 784.029 599.543 781.001C416.057 833.613 247.251 855.642 109.043 862.892L109.03 862.888ZM90.6911 846.346C96.3889 851.554 102.12 856.728 107.885 861.868C245.969 854.695 414.738 832.759 598.243 780.243C592.972 777.233 587.706 774.232 582.5 771.328C391.74 806.039 224.506 829.992 90.7049 846.355L90.6911 846.346ZM72.1734 829.345C77.9447 834.711 83.7941 840.055 89.6343 845.39C223.256 829.073 390.329 805.166 580.979 770.492C575.732 767.57 570.59 764.817 565.407 761.996C367.465 778.791 201.683 804.238 72.1871 829.345H72.1734ZM53.5867 811.847C59.407 817.382 65.284 822.916 71.2176 828.449C200.502 803.355 366.027 777.904 563.702 761.091C558.786 758.421 553.763 755.577 548.902 753.017C343.626 751.827 178.997 778.336 53.5867 811.847ZM34.8116 793.83C40.7254 799.546 46.6529 805.271 52.6677 810.983C177.826 777.477 342.101 750.913 546.885 751.901C541.83 749.231 536.973 746.846 531.979 744.301C319.672 725.227 156.197 752.356 34.8116 793.812V793.83ZM15.8895 775.354C21.8538 781.229 27.8748 787.111 33.9524 792.998C155.016 751.57 317.922 724.349 529.369 742.987C524.774 740.629 520.151 738.24 515.584 735.966C296.105 698.93 133.507 726.284 15.8895 775.335V775.354ZM38.1797 814.926C32.266 809.554 26.4396 804.178 20.6315 798.806C16.6661 800.235 12.7833 801.687 8.91896 803.149C14.6765 808.203 20.4477 813.258 26.3201 818.312C30.2167 817.154 34.1699 816.019 38.1797 814.907V814.926ZM56.4815 831.339C50.6612 826.159 44.8746 820.969 39.1217 815.771C35.1287 816.878 31.2 818 27.2989 819.121C32.9782 823.998 38.7097 828.865 44.4932 833.724C48.4403 832.91 52.4609 832.115 56.4815 831.32V831.339ZM74.5995 847.228C68.865 842.243 63.1396 837.253 57.4878 832.235C53.4764 833.025 49.4788 833.82 45.5409 834.61C51.1514 839.32 56.8445 843.993 62.5423 848.671L74.5995 847.228ZM92.4923 862.626C86.8589 857.835 81.2622 853.022 75.7023 848.189C71.6817 848.648 67.6611 849.158 63.7002 849.627C69.2142 854.151 74.7757 858.654 80.3846 863.136C84.4006 862.961 88.4258 862.791 92.4923 862.612V862.626ZM110.119 877.518C104.605 872.923 99.155 868.282 93.7008 863.651C89.6726 863.834 85.6642 864.008 81.6758 864.17C87.0886 868.498 92.5061 872.822 97.9833 877.105C102.009 877.243 106.038 877.39 110.119 877.505V877.518ZM127.699 891.901C122.277 887.494 116.841 883.083 111.47 878.626C107.435 878.515 103.442 878.378 99.4491 878.24C104.761 882.378 110.102 886.495 115.472 890.591C119.529 891.032 123.605 891.482 127.699 891.887V891.901ZM144.921 905.685C139.664 901.519 134.426 897.33 129.206 893.118C125.14 892.723 121.128 892.277 117.108 891.836C122.323 895.802 127.598 899.698 132.864 903.604C136.861 904.312 140.88 905.005 144.921 905.685ZM161.716 918.91C156.689 915.027 151.708 911.052 146.718 907.11C142.725 906.457 138.759 905.764 134.803 905.056C139.857 908.79 144.927 912.495 150.012 916.171C153.89 917.109 157.81 917.991 161.716 918.91ZM178.492 931.629C173.612 927.953 168.728 924.277 163.875 920.546C160.038 919.673 156.197 918.79 152.388 917.862C157.194 921.313 162.005 924.755 166.844 928.155C170.708 929.336 174.609 930.471 178.492 931.615V931.629ZM194.827 943.723C190.204 940.336 185.587 936.94 180.987 933.494C177.265 932.414 173.529 931.376 169.83 930.246C174.425 933.462 179.052 936.531 183.67 939.665C187.392 941.047 191.111 942.399 194.827 943.723ZM210.592 955.164C206.388 952.168 202.202 949.08 198.011 946.029C194.565 944.821 191.119 943.64 187.677 942.39C191.788 945.166 195.91 947.909 200.042 950.62C203.557 952.15 207.077 953.717 210.606 955.182L210.592 955.164ZM225.613 965.622C221.937 963.09 218.261 960.604 214.627 958.027C211.71 956.835 208.8 955.628 205.896 954.406C209.343 956.644 212.789 958.891 216.235 961.092C219.341 962.613 222.466 964.143 225.613 965.622ZM237.762 974.022C235.722 972.643 233.691 971.191 231.656 969.799C229.496 968.802 227.346 967.754 225.195 966.721C227.81 968.356 230.438 969.914 233.053 971.527C234.615 972.372 236.182 973.19 237.753 974.022H237.762ZM796.433 907.666C695.454 1145.37 507.005 1128.81 317.177 1023.08C517.918 1149.4 717.469 1180.74 814.078 920.15C808.127 915.895 802.305 911.834 796.424 907.666H796.433ZM804.704 887.535C802.163 894.138 799.493 900.36 796.842 906.637C802.705 910.772 808.513 914.848 814.432 919.084C816.922 912.321 819.399 905.492 821.784 898.347C816.017 894.639 810.411 891.17 804.709 887.535H804.704ZM812.189 866.215C809.86 873.066 807.594 880.041 805.122 886.515C810.811 890.141 816.398 893.601 822.124 897.295C824.421 890.288 826.549 882.848 828.694 875.432C823.162 872.298 817.694 869.284 812.194 866.215H812.189ZM819.541 844.108C817.294 851.382 814.9 858.233 812.534 865.172C818.048 868.232 823.475 871.232 829.007 874.362C831.18 866.853 833.423 859.529 835.44 851.649C830.156 849.108 824.835 846.58 819.555 844.108H819.541ZM826.103 820.876C824.058 828.38 822.018 835.915 819.84 843.051C825.106 845.517 830.398 848.02 835.716 850.56C837.678 842.863 839.465 834.67 841.28 826.569C836.235 824.672 831.139 822.723 826.117 820.876H826.103ZM832.403 796.771C830.473 804.651 828.456 812.302 826.402 819.828C831.405 821.666 836.51 823.615 841.528 825.503C843.366 817.329 845.204 809.118 846.881 800.557C842.08 799.307 837.204 797.979 832.416 796.771H832.403ZM838.174 771.733C836.394 779.903 834.556 787.896 832.66 795.714C837.425 796.918 842.309 798.241 847.093 799.486C848.756 791.01 850.344 782.332 851.858 773.451C847.313 772.886 842.718 772.275 838.188 771.733H838.174ZM843.417 745.73C841.799 754.175 840.168 762.589 838.417 770.671C842.93 771.214 847.506 771.825 852.042 772.39C853.539 763.591 854.941 754.525 856.292 745.326C852.014 745.463 847.704 745.587 843.431 745.73H843.417ZM848.407 718.739C846.9 727.612 845.25 736.108 843.619 744.641C847.874 744.498 852.17 744.374 856.443 744.241C857.794 734.991 859.173 725.797 860.386 716.17L848.407 718.739ZM852.625 690.866C851.32 699.849 850.066 708.979 848.623 717.586L860.542 715.026C861.705 705.675 862.683 695.842 863.69 686.078C860.014 687.682 856.324 689.29 852.639 690.866H852.625ZM856.811 661.839C855.584 671.392 854.155 680.389 852.804 689.607C856.48 688.035 860.156 686.436 863.832 684.851C864.866 674.875 866.01 665.194 866.906 654.855C863.546 657.202 860.185 659.53 856.825 661.839H856.811ZM860.028 632.243C859.03 641.695 858.111 651.354 856.972 660.415C860.317 658.114 863.661 655.797 867.003 653.463C867.83 643.671 868.427 633.273 869.093 623.062C866.076 626.156 863.056 629.217 860.032 632.243H860.028ZM863.244 601.301C862.325 611.286 861.268 620.852 860.234 630.516C863.235 627.492 866.235 624.487 869.227 621.408C869.916 610.982 870.692 600.781 871.244 589.992C868.583 593.852 865.9 597.547 863.23 601.301H863.244ZM865.629 569.968C864.926 579.81 864.25 589.726 863.405 599.196C865.799 595.833 868.211 592.529 870.578 589.05L870.605 589.014L870.647 588.972L871.308 588.315C871.809 578.206 872.144 567.679 872.503 557.207L871.497 558.641C869.558 562.519 867.577 566.209 865.615 569.968H865.629ZM867.857 537.205C867.26 547.406 866.552 557.313 865.84 567.206C867.412 564.196 868.997 561.232 870.541 558.126V558.094L870.573 558.053C871.241 557.109 871.904 556.166 872.563 555.222C872.93 544.681 873.353 534.292 873.596 523.448L871.51 527.583C870.316 530.887 869.07 534.026 867.844 537.205H867.857ZM869.406 504.241C868.983 514.18 868.565 524.124 868.027 533.741C868.868 531.577 869.714 529.435 870.527 527.188V527.156V527.129C871.566 525.079 872.598 523.031 873.624 520.985C873.835 510.812 873.9 500.271 873.973 489.739L871.529 496.535C870.839 499.177 870.114 501.686 869.392 504.241H869.406ZM870.688 469.894C870.398 479.879 870.035 489.684 869.631 499.375C869.925 498.341 870.224 497.316 870.504 496.241V496.218C871.68 492.956 872.849 489.703 874.01 486.458C874.079 475.968 874.221 465.657 874.194 454.919C873.312 458.448 872.426 461.987 871.538 465.538C871.262 467.017 870.968 468.451 870.674 469.894H870.688ZM871.386 435.808C871.221 445.288 871.065 454.79 870.812 464.021C871.93 459.549 873.044 455.092 874.153 450.65C874.097 441.042 873.923 431.112 873.748 421.192L871.566 434.453C871.497 434.917 871.428 435.349 871.373 435.808H871.386ZM871.786 401.162C871.786 410.242 871.68 419.133 871.547 427.905L873.665 415.039C873.491 405.362 873.449 396.02 873.206 386.215L871.786 401.162ZM871.671 369.833C871.671 376.62 871.763 383.572 871.745 390.286L872.926 377.98C872.737 371.212 872.466 364.195 872.177 357.211L871.671 369.833ZM871.57 341.4C871.57 342.645 871.57 343.789 871.57 345.025L871.653 342.98C871.616 342.016 871.584 341.069 871.547 340.099L871.57 341.4ZM870.706 401.107C870.706 400.101 870.706 399.025 870.706 398.005C870.651 399.682 870.591 401.323 870.536 402.991L870.706 401.107ZM870.302 435.735C870.431 428.383 870.67 421.293 870.761 413.803C870.44 418.356 870.04 422.689 869.705 427.202C869.45 433.846 869.162 440.402 868.841 446.868C869.314 443.183 869.829 439.553 870.288 435.735H870.302ZM869.608 469.802C869.842 461.903 869.962 453.687 870.1 445.527C869.41 451.132 868.652 456.554 867.917 462.068C867.458 469.88 866.998 477.815 866.511 485.535C867.531 480.324 868.602 475.169 869.594 469.802H869.608ZM868.317 504.108C868.726 494.803 869.162 485.581 869.475 476.042C868.363 481.983 867.177 487.759 866.024 493.562C865.399 502.477 864.646 511.106 863.961 519.795C865.408 514.598 866.883 509.433 868.303 504.108H868.317ZM866.773 537.008C867.301 527.905 867.692 518.407 868.087 508.978C866.562 514.635 864.999 520.186 863.432 525.732C862.697 534.536 861.957 543.321 861.135 551.845C863 546.924 864.898 542.021 866.759 537.008H866.773ZM864.544 569.706C865.257 560.029 866.006 550.439 866.612 540.477C864.682 545.633 862.736 550.739 860.772 555.797C859.825 565.037 858.746 573.91 857.707 582.907C859.986 578.539 862.261 574.134 864.531 569.692L864.544 569.706ZM862.164 600.951C862.996 591.762 863.639 582.043 864.333 572.463C862.008 576.989 859.683 581.506 857.344 585.963C856.329 594.808 855.327 603.699 854.192 612.214C856.848 608.501 859.499 604.724 862.15 600.938L862.164 600.951ZM858.948 631.793C859.977 622.258 861.066 612.894 861.98 603.051C859.288 606.865 856.604 610.716 853.898 614.479C852.657 623.549 851.242 632.156 849.9 640.96C852.933 637.941 855.943 634.844 858.957 631.793H858.948ZM855.754 661.26C856.88 652.351 857.776 642.816 858.759 633.525C855.713 636.604 852.676 639.747 849.62 642.784C848.329 651.331 847.097 660.038 845.682 668.236C849.05 665.952 852.404 663.576 855.763 661.26H855.754ZM851.587 690.135C852.924 681.046 854.344 672.128 855.547 662.717C852.175 665.042 848.802 667.422 845.439 669.711C843.918 678.358 842.222 686.491 840.582 694.859C844.244 693.297 847.92 691.711 851.596 690.135H851.587ZM847.396 717.848C848.834 709.315 850.098 700.299 851.403 691.399C847.727 692.98 844.009 694.574 840.32 696.132C838.739 704.302 837.191 712.554 835.486 720.389L847.396 717.848ZM842.433 744.678C844.06 736.232 845.682 727.786 847.185 719.005L835.21 721.556C833.432 729.634 831.534 737.339 829.636 745.123C833.897 744.973 838.166 744.825 842.443 744.678H842.433ZM837.236 770.52C838.983 762.488 840.618 754.157 842.231 745.767C837.943 745.907 833.654 746.061 829.365 746.226C827.5 753.932 825.611 761.587 823.631 768.971C828.171 769.472 832.683 769.973 837.246 770.52H837.236ZM831.493 795.429C833.392 787.664 835.23 779.714 837.007 771.581C832.412 771.03 827.89 770.529 823.35 770.019C821.329 777.49 819.215 784.75 817.101 791.914C821.889 793.076 826.636 794.207 831.502 795.429H831.493ZM825.248 819.415C827.302 811.92 829.319 804.33 831.249 796.486C826.383 795.259 821.6 794.124 816.789 792.957C814.638 800.144 812.419 807.128 810.163 813.997C815.194 815.799 820.203 817.554 825.257 819.415H825.248ZM818.714 842.528C820.888 835.433 822.909 827.92 824.954 820.472C819.863 818.602 814.845 816.837 809.814 815.031C807.558 821.892 805.283 828.715 802.921 835.249C808.192 837.671 813.421 840.046 818.723 842.528H818.714ZM811.413 864.551C813.775 857.659 816.173 850.831 818.415 843.584C813.094 841.094 807.847 838.714 802.563 836.274C800.137 842.909 797.586 849.186 795.059 855.522C800.509 858.513 805.958 861.5 811.422 864.551H811.413ZM804.006 885.826C806.455 879.393 808.738 872.441 811.068 865.608C805.554 862.548 800.118 859.552 794.659 856.551C792.174 862.81 789.738 869.215 787.138 875.133C792.734 878.644 798.357 882.208 804.006 885.826ZM795.735 905.883C798.381 899.634 801.042 893.421 803.574 886.846C797.928 883.247 792.295 879.675 786.673 876.131C783.972 882.182 781.123 887.793 778.324 893.564C784.096 897.575 789.945 901.757 795.744 905.86L795.735 905.883ZM297.051 1010.06C493.11 1125.54 690.937 1152.04 795.321 906.889C789.504 902.754 783.641 898.577 777.86 894.529C667.967 1120.14 477.349 1104 289.571 1005.15C292.061 1006.81 294.538 1008.42 297.051 1010.06ZM257.585 985.62C259.556 986.897 261.523 988.234 263.494 989.493C265.792 990.803 268.089 992.186 270.424 993.472C267.91 991.726 265.397 989.985 262.888 988.225C261.119 987.375 259.354 986.506 257.585 985.62ZM237.51 972.409C241.282 974.955 245.068 977.413 248.85 979.894C251.428 981.222 254.01 982.513 256.597 983.791C253.261 981.397 249.93 978.888 246.594 976.439C243.566 975.111 240.533 973.783 237.51 972.409ZM219.53 959.975C223.757 962.931 227.992 965.86 232.235 968.761C235.511 970.272 238.801 971.701 242.086 973.149C237.951 970.112 233.815 967.106 229.68 964C226.292 962.668 222.908 961.326 219.53 959.975ZM201.839 947.366C206.319 950.583 210.785 953.868 215.279 957.016C218.955 958.514 222.631 959.952 226.307 961.395C221.887 958.054 217.476 954.636 213.074 951.231C209.315 949.999 205.584 948.658 201.839 947.366ZM184.116 934.422C188.945 938.02 193.807 941.535 198.659 945.06C202.51 946.406 206.365 947.753 210.225 949.062C205.4 945.313 200.589 941.526 195.792 937.703C191.891 936.646 188.003 935.534 184.116 934.422ZM166.655 921.184C171.627 924.992 176.613 928.772 181.612 932.525C185.619 933.687 189.612 934.868 193.637 935.975C188.523 931.904 183.395 927.842 178.313 923.698C174.416 922.886 170.53 922.056 166.655 921.207V921.184ZM149.089 907.51C154.212 911.539 159.335 915.578 164.496 919.544C168.478 920.463 172.46 921.344 176.443 922.186C171.246 917.94 166.099 913.589 160.939 909.279C156.983 908.704 153.013 908.139 149.089 907.51ZM131.219 893.297C136.549 897.598 141.925 901.853 147.301 906.094C151.29 906.747 155.315 907.344 159.34 907.932C153.97 903.439 148.617 898.909 143.281 894.345C139.228 894.019 135.212 893.674 131.219 893.297ZM113.321 878.653C118.762 883.156 124.233 887.632 129.735 892.08C133.751 892.466 137.813 892.806 141.875 893.146C136.361 888.427 130.847 883.703 125.379 878.924C121.335 878.855 117.324 878.754 113.321 878.653ZM95.3596 863.559C100.874 868.236 106.388 872.919 111.97 877.546C115.996 877.656 120.042 877.748 124.11 877.822C118.514 872.914 112.977 867.938 107.431 862.984C103.387 863.191 99.371 863.375 95.3596 863.559ZM77.1957 847.996C82.8107 852.86 88.461 857.706 94.1465 862.534C98.1809 862.35 102.202 862.171 106.286 861.964C100.567 856.845 94.8817 851.702 89.2299 846.534C85.1894 847.031 81.178 847.518 77.1957 847.996ZM58.8479 831.95C64.5411 837.004 70.3354 842.022 76.0975 847.035L88.1777 845.574C82.3696 840.262 76.5616 834.946 70.827 829.607C66.8064 830.388 62.8042 831.169 58.8525 831.95H58.8479ZM40.3899 815.408C46.1612 820.631 51.9815 825.849 57.8508 831.063C61.8178 830.282 65.8231 829.498 69.8667 828.71C63.9759 823.221 58.1265 817.707 52.3185 812.169C48.3117 813.225 44.3094 814.305 40.3945 815.39L40.3899 815.408ZM21.817 798.407C27.6481 803.797 33.5021 809.196 39.448 814.581C43.3721 813.492 47.3789 812.421 51.3949 811.364C45.4214 805.676 39.5123 799.974 33.6307 794.28C29.6515 795.607 25.7151 796.97 21.8216 798.37L21.817 798.407ZM3.08334 780.877C8.9741 786.434 14.9246 791.992 20.9348 797.552C24.8344 796.149 28.7815 794.763 32.7761 793.393C26.7168 787.521 20.7143 781.652 14.7684 775.786C10.8075 777.454 6.95231 779.167 3.08334 780.877ZM0.000113046 660.42C106.075 614.47 256.322 615.416 469.248 712.458C478.698 716.033 488.27 719.782 497.962 723.706C508.448 727.116 519.099 730.778 529.897 734.592C540.075 737.316 550.34 740.165 560.771 743.221C570.301 745.142 579.938 747.19 589.682 749.365C599.791 750.624 610.007 751.981 620.331 753.436C629.463 753.76 638.669 754.143 647.951 754.584C657.141 753.95 666.406 753.338 675.746 752.746C684.575 751.04 693.443 749.315 702.351 747.572C710.662 744.73 718.996 741.82 727.352 738.842C735.418 734.624 743.484 730.289 751.549 725.838C758.862 720.361 766.151 714.72 773.417 708.915C780.496 701.594 787.531 694.05 794.522 686.285C800.547 677.802 806.502 669.054 812.387 660.038C818.351 648.673 824.202 636.924 829.94 624.79C834.296 613.303 838.518 601.356 842.654 589.198C847.001 573.115 851.136 556.422 855.116 539.269C857.767 524.418 860.244 509.075 862.582 493.36C864.88 472.053 866.833 449.827 868.602 427.11C869.406 409.346 870.058 391.186 870.472 372.402L870.578 369.82C870.578 360.414 870.619 351.183 870.472 341.437L870.219 305.04C868.156 260.804 866.12 217.639 864.149 175.815C861.006 109.06 858.049 45.6965 855.276 -14.274H856.361C859.118 45.7669 862.075 109.113 865.234 175.765C866.793 208.849 868.39 242.83 870.026 277.709L869.677 229.301C869.043 142.303 868.528 61.1111 868.133 -14.274H869.213C869.538 61.2122 870.052 142.402 870.757 229.296C870.938 254.048 871.118 279.28 871.299 304.994L871.556 310.421C871.846 316.716 871.974 322.588 872.218 328.754C873.26 302.395 874.281 276.559 875.283 251.246C879.069 155.418 882.561 67.0845 886.168 -14.274H887.248C883.641 67.0891 880.149 155.437 876.363 251.315C875.186 281.161 873.976 311.733 872.733 343.031C873.077 352.028 873.454 361.094 873.702 369.833C877.893 326.083 881.916 283.793 885.773 242.962C894.596 149.9 902.715 64.2954 910.687 -14.2511H911.772C903.799 64.323 895.689 149.955 886.848 243.067C882.741 286.441 878.452 331.441 873.982 378.068C874.272 388.549 874.442 398.786 874.64 408.983C886.145 338.873 896.867 272.529 906.804 209.951C919.748 129.255 931.727 54.6 943.321 -14.2465H944.419C932.812 54.6368 920.828 129.351 907.87 210.121C897.529 274.601 886.472 342.944 874.699 415.149C874.883 425.718 875.076 436.327 875.131 446.574C900.675 344.12 923.13 249.422 943.808 162.348C958.714 99.5067 972.678 40.668 986.173 -14.3016H987.294C973.776 40.7324 959.794 99.6537 944.865 162.605C923.948 250.778 901.18 346.762 875.242 450.774C875.287 461.802 875.242 472.577 875.154 483.293C923.824 347.355 963.791 223.888 999.549 113.434C1014.03 68.7111 1027.82 26.1295 1041.21 -14.3062H1042.35C1028.92 26.2123 1015.1 68.9133 1000.58 113.756C964.568 225.009 924.274 349.478 875.14 486.592C875.067 497.427 875.003 508.294 874.787 518.757C956.834 355.428 1018.65 206.229 1072.83 75.452C1085.66 44.4819 1098.12 14.564 1110.21 -14.3016H1111.39C1099.19 14.6743 1086.67 44.7315 1073.85 75.8701C1019.44 207.19 957.34 357.082 874.732 521.229C874.488 532.224 874.12 542.903 873.748 553.564C999.012 375.688 1084.35 204.571 1158.57 55.735C1170.52 31.7921 1182.21 8.44656 1193.65 -14.3016H1194.86C1183.3 8.57215 1171.52 32.0785 1159.54 56.2174C1085.1 205.453 999.526 377.094 873.67 555.549C873.302 566.186 872.972 576.915 872.457 587.162C1048.28 412.167 1156.02 221.687 1250.16 55.2387C1263.58 31.5225 1276.76 8.3424 1289.72 -14.3016H1290.97C1277.85 8.48944 1264.56 31.8472 1251.11 55.7717C1156.79 222.542 1048.84 413.431 872.416 588.756C871.86 599.495 871.138 609.801 870.449 620.186L870.656 619.979L870.697 619.933L870.748 619.901C1101.97 465.882 1229.5 256.135 1342.24 70.6778C1359.89 41.6422 1377.16 13.2406 1394.46 -14.3016H1395.73C1378.35 13.4107 1360.94 42.0098 1343.17 71.243C1230.37 256.774 1102.79 466.627 871.359 620.774C871.01 621.137 870.656 621.486 870.302 621.84C869.626 632.183 869.025 642.724 868.188 652.627C869.025 652.052 869.865 651.482 870.697 650.885L870.752 650.848L870.807 650.825C1158.88 533.805 1302.86 303.671 1431.85 97.517C1455.88 59.1123 1479.39 21.5392 1503.21 -14.32H1504.51C1480.56 21.7046 1456.93 59.4753 1432.77 98.0868C1303.71 304.374 1159.64 534.651 871.267 651.809C870.21 652.562 869.149 653.284 868.087 654.01C867.168 664.431 866.065 674.269 865.027 684.336C866.948 683.509 868.864 682.691 870.794 681.841H870.844H870.908C1217.08 614.53 1374.94 361.08 1517.72 131.791C1549.26 81.1589 1580.06 31.6987 1612 -14.3292H1613.32C1581.26 31.8733 1550.34 81.5311 1518.64 132.384C1375.74 361.834 1217.76 615.472 871.161 682.861C869.061 683.78 866.975 684.699 864.884 685.572C863.874 695.392 862.922 705.368 861.751 714.769C864.793 714.116 867.825 713.469 870.881 712.807H870.987C1276.02 705.409 1445.6 425.226 1599.75 170.577C1639.05 105.655 1677.34 42.3774 1718.28 -14.2878H1719.61C1678.53 42.5152 1640.12 105.99 1600.67 171.138C1446.41 426.012 1276.67 706.452 871.092 713.887L861.617 715.922C860.391 725.622 859.012 734.899 857.647 744.218C862.091 744.076 866.525 743.929 871 743.8H871.088C1335.54 804.357 1515.11 493.76 1678.14 211.743C1724.87 130.918 1770.24 52.4404 1820.58 -14.3062H1821.96C1771.46 52.5323 1725.96 131.226 1679.1 212.29C1515.9 494.582 1336.16 805.501 871.019 744.848C866.488 744.976 862.008 745.123 857.514 745.266C856.136 754.506 854.757 763.682 853.273 772.514C859.205 773.254 865.114 773.971 871.111 774.761H871.143H871.175C1395.61 909.853 1583.68 565.046 1753.36 253.939C1806.89 155.804 1858.59 61.0192 1918.44 -14.3384H1919.82C1859.8 61.0559 1807.97 156.071 1754.31 254.468C1584.43 565.919 1396.16 911.089 870.936 775.827C864.93 775.032 859.012 774.315 853.071 773.575C851.541 782.494 849.951 791.243 848.274 799.767C855.883 801.738 863.437 803.682 871.17 805.768H871.198C1456.23 1020.89 1651.5 637.987 1825.75 296.291C1885.33 179.45 1942.46 67.4338 2011.88 -14.297H2013.3C1943.7 67.3924 1886.44 179.666 1826.71 296.783C1652.26 638.883 1456.77 1022.23 870.853 806.825C863.18 804.743 855.635 802.813 848.058 800.851C846.357 809.439 844.552 817.738 842.709 825.94C852.152 829.478 861.604 833.03 871.198 836.793H871.226C1517.58 1136.59 1718.84 711.575 1895.74 338C1960.68 200.881 2022.33 70.6778 2101.51 -14.3016H2102.99C2023.59 70.5537 1961.8 201.023 1896.72 338.459C1719.6 712.49 1518.1 1138.01 870.807 837.813C861.254 834.068 851.853 830.535 842.461 827.01C840.623 835.153 838.845 843.387 836.873 851.116C848.223 856.519 859.651 862.038 871.253 867.818H871.276C1422.6 1170.25 1669.68 951.961 1835.92 648.693C1883.32 562.207 1924.16 468.818 1963.61 378.61C2033.35 219.132 2098.74 69.6118 2188.4 -14.3016H2189.96C2100.04 69.3269 2034.5 219.174 1964.59 379.028C1925.13 469.26 1884.28 562.68 1836.85 649.212C1670.34 952.982 1422.89 1171.66 870.757 868.788C859.233 863.049 847.883 857.567 836.607 852.195C834.558 860.103 832.324 867.492 830.146 875.019C843.674 882.677 857.384 890.614 871.276 898.83C1411.49 1235.8 1676.25 1081.03 1847.2 806.792C1920.45 689.29 1976.5 549.846 2029.6 417.732C2102.97 235.169 2170.73 66.5883 2270.54 -10.9795C2272.01 -12.1236 2273.5 -13.2126 2274.98 -14.3154H2276.81C2274.94 -12.9369 2273.07 -11.5584 2271.23 -10.1248C2171.64 67.2591 2103.94 235.706 2030.62 418.127C1977.51 550.287 1921.44 689.777 1848.15 807.358C1676.89 1082.1 1411.7 1237.17 870.748 899.744C856.938 891.565 843.306 883.677 829.852 876.08C827.706 883.51 825.579 891 823.286 898.021C839.024 908.181 855.074 918.845 871.317 929.827C1415.93 1306.16 1695.71 1192.15 1872.87 935.613C1967.58 798.462 2033 620.554 2093.89 455.033C2157.34 282.506 2215.85 123.419 2297.49 37.8192V39.3769C2216.42 125 2158.12 283.531 2094.9 455.424C2034.01 621.004 1968.56 798.972 1873.76 936.247C1696.27 1193.28 1416.04 1307.58 870.711 930.733C854.546 919.801 838.578 909.196 822.923 899.078C820.557 906.246 818.075 913.088 815.571 919.879C833.816 932.957 852.406 946.611 871.34 960.844C1427.66 1378.93 1721.8 1295.9 1905.64 1051.1C2019.57 899.395 2091.2 685.545 2156.61 490.282C2202.48 353.351 2245.3 225.611 2297.49 134.709V136.891C2245.77 227.564 2203.22 354.578 2157.64 490.626C2092.21 685.968 2020.54 899.905 1906.51 1051.76C1722.3 1297.03 1427.71 1380.3 870.688 961.694C851.855 947.541 833.355 933.951 815.19 920.922C715.07 1191.33 504.57 1148.63 296.477 1011.15C285.278 1004.54 274.096 997.672 262.934 990.541C252.742 984.751 242.573 978.745 232.428 972.524C221.4 966.602 210.427 960.458 199.509 954.089C189.244 948.881 179.037 943.467 168.888 937.846C158.038 932.712 147.272 927.404 136.59 921.924C126.288 917.461 116.086 912.841 105.983 908.066C95.3351 903.961 84.8203 899.694 74.4387 895.264C63.9713 891.763 53.6189 888.151 43.4732 884.402C33.2999 881.611 23.3119 878.711 13.5093 875.703C8.95725 874.784 4.45111 873.838 -0.0090769 872.864V871.756L2.62844 872.312L0.000113046 871.471V869.996C2.95928 870.318 5.94141 870.626 8.92815 870.915C5.92763 869.688 2.95468 868.452 0.000113046 867.212V866.068C4.25506 867.844 8.5437 869.607 12.866 871.356C16.542 871.719 20.2685 872.055 24.0043 872.386C19.515 870.217 15.0808 868.02 10.6788 865.819C7.08556 865.819 3.53824 865.847 0.000113046 865.852V864.776C2.82143 864.776 5.67031 864.776 8.52379 864.744C5.66572 863.317 2.82449 861.882 0.000113046 860.439V859.216C3.63014 861.054 7.28315 862.892 10.9591 864.73C14.8327 864.73 18.7706 864.661 22.7269 864.611C17.7459 861.768 12.8078 858.907 7.91266 856.028L0.000113046 856.878V855.793L6.36415 855.086C4.23821 853.83 2.11686 852.58 0.000113046 851.336V850.072C2.71727 851.684 5.44209 853.295 8.17457 854.906C12.0941 854.447 16.0687 854.024 20.0664 853.569C14.773 850.1 9.49792 846.626 4.3056 843.129L0.000113046 844.048V842.946L3.06956 842.289L0.000113046 840.216V838.898L4.55833 841.972C8.46405 841.144 12.4142 840.313 16.4088 839.477C10.8948 835.428 5.38083 831.376 0.000113046 827.309V825.931L0.170127 826.059C4.03909 824.855 7.96473 823.667 11.947 822.493C7.93104 819.243 3.94873 815.99 0.000113046 812.734V811.296C4.37453 814.903 8.76732 818.51 13.2244 822.107C17.121 820.945 21.0359 819.81 25.0243 818.638C19.1933 813.621 13.4634 808.589 7.73805 803.571C5.14036 804.555 2.56104 805.543 0.000113046 806.535V805.414C2.26084 804.535 4.53688 803.662 6.82824 802.795C4.53995 800.77 2.2639 798.753 0.000113046 796.743V795.259C2.65601 797.615 5.32569 799.972 8.00915 802.331C11.8827 800.87 15.7701 799.404 19.7447 797.97C13.759 792.429 7.83914 786.892 1.98514 781.359L0.000113046 782.246V781.061L1.13507 780.551L0.000113046 779.489V777.968L2.23787 780.077C6.10683 778.363 9.97121 776.64 13.9413 774.968C9.25745 770.351 4.6104 765.739 0.000113046 761.132V759.57C4.97187 764.542 9.99265 769.524 15.0624 774.517C132.257 725.526 294.078 698.048 512.34 734.288C507.988 732.124 503.683 730.029 499.377 727.943C274.803 673.497 113.841 699.688 0.000113046 754.869V753.642C113.115 698.902 272.574 672.771 494.461 725.613C490.587 723.775 486.75 721.937 482.918 720.154C264.657 652.208 109.576 670.988 -0.0136719 725.163V723.867C108.474 670.372 261.348 651.482 475.718 716.731C473.448 715.679 471.091 714.502 468.825 713.473C256.616 633.24 106.309 643.156 0.000113046 693.857V692.479C103.148 643.395 247.522 632.579 449.517 705.041C246.911 616.74 102.675 617.277 0.000113046 661.881V660.42Z" fill="#034833"/>
</svg>
